<?xml version="1.0" encoding="UTF-8"?>

<svg
	width="64"
	height="64"
	xmlns="http://www.w3.org/2000/svg"
>
	<path
		style="fill:#26a198"
		d="m 64,55.357047 v -23.35586 l -16.008274,0.004 V 51.454954 L 16.002756,32.013254 0,32.021297 51.6453,63.405053 C 55.937632,65.063369 63.933174,63.523235 64,55.357047 Z"
	/>
	<path
		style="fill:#266f9e"
		d="M 0,8.6429528 V 31.998812 l 16.008274,-0.004 V 12.545046 l 31.98897,19.4417 L 64,31.978703 12.3547,0.59494641 C 8.0623672,-1.0633687 0.06682704,0.47676217 0,8.6429528 Z"
	/>
	<path
		style="fill:#479ed1;stroke-width:0.653198"
		d="m 0,55.357047 v -23.35586 l 16.008274,0.004 V 51.454954 L 47.997244,32.013254 64,32.021297 12.3547,63.405053 C 8.0623672,65.063369 0.06682704,63.523238 0,55.357047 Z"
	/>
	<path
		style="fill:#42cbc1;stroke-width:0.653198"
		d="M 64,8.6429528 V 31.998812 l -16.008274,-0.004 V 12.545046 L 16.002756,31.986746 0,31.978703 51.6453,0.59494641 C 55.937632,-1.0633687 63.933174,0.47676217 64,8.6429528 Z"
	/>
</svg>
